<?xml version="1.0" encoding="utf-8"?>
<!-- Generator: Adobe Illustrator 19.2.0, SVG Export Plug-In . SVG Version: 6.00 Build 0)  -->
<svg version="1.1" id="Layer_1" xmlns="http://www.w3.org/2000/svg" xmlns:xlink="http://www.w3.org/1999/xlink" x="0px" y="0px"
	 viewBox="0 0 1792 1792" style="enable-background:new 0 0 1792 1792;" xml:space="preserve">
<style type="text/css">
	.st0{fill:#5B616B;}
</style>
<path class="st0" d="M192,1664h288v-288H192V1664z M544,1664h320v-288H544V1664z M192,1312h288V992H192V1312z M544,1312h320V992H544
	V1312z M192,928h288V640H192V928z M928,1664h320v-288H928V1664z M544,928h320V640H544V928z M1312,1664h288v-288h-288V1664z
	 M928,1312h320V992H928V1312z M576,448V160c0-8.7-3.2-16.2-9.5-22.5S552.7,128,544,128h-64c-8.7,0-16.2,3.2-22.5,9.5
	S448,151.3,448,160v288c0,8.7,3.2,16.2,9.5,22.5s13.8,9.5,22.5,9.5h64c8.7,0,16.2-3.2,22.5-9.5S576,456.7,576,448z M1312,1312h288
	V992h-288V1312z M928,928h320V640H928V928z M1312,928h288V640h-288V928z M1344,448V160c0-8.7-3.2-16.2-9.5-22.5s-13.8-9.5-22.5-9.5
	h-64c-8.7,0-16.2,3.2-22.5,9.5s-9.5,13.8-9.5,22.5v288c0,8.7,3.2,16.2,9.5,22.5s13.8,9.5,22.5,9.5h64c8.7,0,16.2-3.2,22.5-9.5
	S1344,456.7,1344,448z M1728,384v1280c0,34.7-12.7,64.7-38,90s-55.3,38-90,38H192c-34.7,0-64.7-12.7-90-38s-38-55.3-38-90V384
	c0-34.7,12.7-64.7,38-90s55.3-38,90-38h128v-96c0-44,15.7-81.7,47-113S436,0,480,0h64c44,0,81.7,15.7,113,47s47,69,47,113v96h384
	v-96c0-44,15.7-81.7,47-113s69-47,113-47h64c44,0,81.7,15.7,113,47s47,69,47,113v96h128c34.7,0,64.7,12.7,90,38S1728,349.3,1728,384
	z"/>
</svg>
