<?xml version="1.0" encoding="utf-8"?>
<!-- Generator: Adobe Illustrator 19.2.0, SVG Export Plug-In . SVG Version: 6.00 Build 0)  -->
<svg version="1.1" id="Layer_1" xmlns="http://www.w3.org/2000/svg" xmlns:xlink="http://www.w3.org/1999/xlink" x="0px" y="0px"
	 viewBox="0 0 100 100" style="enable-background:new 0 0 100 100;" xml:space="preserve">
<style type="text/css">
	.st0{fill:#F1F1F1;}
	.st1{fill:#AEB0B5;}
</style>
<rect class="st0" width="100" height="100"/>
<path class="st1" d="M86.6,76.5c0,4.2-1.3,7.4-3.8,9.9c-2.5,2.4-5.9,3.6-10.1,3.6H27.3c-4.2,0-7.6-1.2-10.1-3.6
	c-2.5-2.4-3.8-5.7-3.8-9.9c0-1.8,0.1-3.6,0.2-5.4c0.1-1.8,0.4-3.6,0.7-5.7c0.4-2,0.8-3.9,1.4-5.6c0.6-1.7,1.3-3.4,2.2-5.1
	c0.9-1.6,2-3,3.2-4.2s2.7-2.1,4.4-2.8s3.7-1,5.8-1c0.3,0,1,0.4,2.2,1.1s2.4,1.6,3.9,2.5c1.4,0.9,3.3,1.8,5.6,2.5s4.6,1.1,6.9,1.1
	s4.6-0.4,6.9-1.1c2.3-0.7,4.2-1.6,5.6-2.5c1.4-0.9,2.7-1.8,3.9-2.5s1.9-1.1,2.2-1.1c2.1,0,4,0.3,5.8,1c1.8,0.7,3.2,1.6,4.4,2.8
	c1.2,1.2,2.3,2.6,3.2,4.2c0.9,1.6,1.7,3.3,2.2,5.1c0.6,1.7,1,3.6,1.4,5.6c0.4,2,0.6,3.9,0.7,5.7C86.5,72.8,86.6,74.6,86.6,76.5z
	 M70,30c0,5.5-1.9,10.2-5.8,14.1S55.5,50,50,50s-10.2-1.9-14.1-5.8S30,35.5,30,30s1.9-10.2,5.8-14.1s8.6-5.8,14.1-5.8
	s10.2,1.9,14.1,5.8S70,24.5,70,30z"/>
</svg>
