<?xml version="1.0" encoding="utf-8"?>
<!-- Generator: Adobe Illustrator 19.2.0, SVG Export Plug-In . SVG Version: 6.00 Build 0)  -->
<svg version="1.1" id="Layer_1" xmlns="http://www.w3.org/2000/svg" xmlns:xlink="http://www.w3.org/1999/xlink" x="0px" y="0px"
	 viewBox="0 0 1664 1664" style="enable-background:new 0 0 1664 1664;" xml:space="preserve">
<style type="text/css">
	.st0{fill:#5B616B;}
</style>
<path class="st0" d="M1152,704c0-123.3-43.8-228.8-131.5-316.5S827.3,256,704,256s-228.8,43.8-316.5,131.5S256,580.7,256,704
	s43.8,228.8,131.5,316.5S580.7,1152,704,1152s228.8-43.8,316.5-131.5S1152,827.3,1152,704z M1664,1536c0,34.7-12.7,64.7-38,90
	s-55.3,38-90,38c-36,0-66-12.7-90-38l-343-342c-119.3,82.7-252.3,124-399,124c-95.3,0-186.5-18.5-273.5-55.5s-162-87-225-150
	s-113-138-150-225S0,799.3,0,704s18.5-186.5,55.5-273.5s87-162,150-225s138-113,225-150S608.7,0,704,0s186.5,18.5,273.5,55.5
	s162,87,225,150s113,138,150,225S1408,608.7,1408,704c0,146.7-41.3,279.7-124,399l343,343C1651.7,1470.7,1664,1500.7,1664,1536z"/>
</svg>
